<svg xmlns="http://www.w3.org/2000/svg" viewBox="0 0 32 32" width="32" height="32">
  <!-- Background circle with gradient -->
  <defs>
    <linearGradient id="bgGradient" x1="0%" y1="0%" x2="100%" y2="100%">
      <stop offset="0%" style="stop-color:#2563eb;stop-opacity:1" />
      <stop offset="100%" style="stop-color:#1d4ed8;stop-opacity:1" />
    </linearGradient>
    <linearGradient id="chartGradient" x1="0%" y1="0%" x2="100%" y2="100%">
      <stop offset="0%" style="stop-color:#10b981;stop-opacity:1" />
      <stop offset="100%" style="stop-color:#059669;stop-opacity:1" />
    </linearGradient>
  </defs>

  <!-- Background -->
  <circle cx="16" cy="16" r="16" fill="url(#bgGradient)"/>

  <!-- Chart bars -->
  <rect x="19" y="14" width="2.5" height="6" fill="url(#chartGradient)" rx="1"/>
  <rect x="22.5" y="12" width="2.5" height="8" fill="url(#chartGradient)" rx="1"/>
  <rect x="26" y="10" width="2.5" height="10" fill="url(#chartGradient)" rx="1"/>

  <!-- S-shaped path (drawn first so bar appears on top) -->
  <path d="M9 12c0-2 1.8-3 4-3s4 1 4 3c0 1.5-1 2.5-3 3l-2 1c-2 1-3 2-3 3.5 0 2 1.8 3 4 3s4-1 4-3"
        fill="none" stroke="white" stroke-width="1.8" stroke-linecap="round" opacity="0.95"
        transform="scale(-1,1) translate(-26,0)"/>

  <!-- Green vertical bar (thicker, left-aligned, and overlays S) -->
  <rect x="12.6" y="6" width="2" height="20" fill="url(#chartGradient)" rx="1"/>
</svg>
